<svg width="18" height="20" viewBox="0 0 18 20" fill="none" xmlns="http://www.w3.org/2000/svg">
<path d="M17.4265 17.4568C17.2807 17.1642 12.3506 7.2684 12.086 6.73715V1.17188H12.7891C13.1127 1.17188 13.375 0.909531 13.375 0.585938C13.375 0.262344 13.1127 0 12.7891 0C11.2143 0 7.01197 0 5.21095 0C4.88736 0 4.62501 0.262344 4.62501 0.585938C4.62501 0.909531 4.88736 1.17188 5.21095 1.17188H5.91407V6.73711C-2.02608 22.6748 1.83212 14.9306 0.573919 17.4561C-0.011081 18.6261 0.840833 20 2.14615 20H15.8539C17.1635 20 18.009 18.622 17.4265 17.4568ZM7.02447 7.13629C7.0649 7.05512 7.08595 6.96566 7.08595 6.875V1.17188H10.9141V6.875C10.9141 6.96566 10.9351 7.05512 10.9756 7.13629L12.8888 10.9766H10.7395C10.4943 10.2508 9.80747 9.72656 9.00001 9.72656C8.19255 9.72656 7.50568 10.2508 7.26052 10.9766H5.11126L7.02447 7.13629ZM9.66408 11.5625C9.66408 11.9287 9.36619 12.2266 9.00001 12.2266C8.63384 12.2266 8.33595 11.9287 8.33595 11.5625C8.33595 11.1963 8.63384 10.8984 9.00001 10.8984C9.36619 10.8984 9.66408 11.1963 9.66408 11.5625ZM15.8539 18.8281H2.14615C1.71052 18.8281 1.42716 18.37 1.62243 17.9794L4.52743 12.1484H7.26052C7.50568 12.8742 8.19255 13.3984 9.00001 13.3984C9.80747 13.3984 10.4943 12.8742 10.7395 12.1484H13.4726L16.3779 17.9802C16.5728 18.3699 16.2893 18.8281 15.8539 18.8281Z" fill="#1849A9"/>
<path d="M6.5 13.7891C5.48766 13.7891 4.66406 14.6127 4.66406 15.625C4.66406 16.6373 5.48766 17.4609 6.5 17.4609C7.51234 17.4609 8.33594 16.6373 8.33594 15.625C8.33594 14.6127 7.51234 13.7891 6.5 13.7891ZM6.5 16.2891C6.13383 16.2891 5.83594 15.9912 5.83594 15.625C5.83594 15.2588 6.13383 14.9609 6.5 14.9609C6.86617 14.9609 7.16406 15.2588 7.16406 15.625C7.16406 15.9912 6.86617 16.2891 6.5 16.2891Z" fill="#1849A9"/>
<path d="M11.4497 14.2605C11.3765 13.9092 11.0259 13.7167 10.7052 13.8144C10.3818 13.9175 10.2248 14.2443 10.3146 14.5453C10.4238 14.8804 10.7541 15.022 11.0454 14.9355C11.3541 14.8346 11.503 14.5452 11.4497 14.2605Z" fill="#1849A9"/>
<path d="M13.3246 15.5102C13.2523 15.1633 12.9083 14.9662 12.5797 15.0642C12.2443 15.1735 12.1028 15.5045 12.1895 15.795C12.2974 16.1261 12.6247 16.2731 12.9203 16.1852C13.2347 16.0824 13.3771 15.7908 13.3246 15.5102Z" fill="#1849A9"/>
<path d="M10.8246 16.7605C10.7514 16.4097 10.4014 16.2165 10.0801 16.3144C9.75283 16.4188 9.60087 16.7485 9.68943 17.0453C9.79873 17.3807 10.129 17.522 10.4203 17.4355C10.7291 17.3345 10.8778 17.0451 10.8246 16.7605Z" fill="#1849A9"/>
</svg>
