<svg width="20" height="20" viewBox="0 0 20 20" fill="none" xmlns="http://www.w3.org/2000/svg">
<mask id="path-1-inside-1_353_2755" fill="white">
<path d="M9.41952 12.4032H7.46159V10.4453C7.46159 10.1217 7.19925 9.85938 6.87565 9.85938C6.55206 9.85938 6.28972 10.1217 6.28972 10.4453V12.4032H4.33179C4.00819 12.4032 3.74585 12.6656 3.74585 12.9892C3.74585 13.3128 4.00819 13.5751 4.33179 13.5751H6.28972V15.533C6.28972 15.8566 6.55206 16.119 6.87565 16.119C7.19925 16.119 7.46159 15.8566 7.46159 15.533V13.5751H9.41952C9.74312 13.5751 10.0055 13.3128 10.0055 12.9892C10.0055 12.6656 9.74312 12.4032 9.41952 12.4032Z"/>
</mask>
<path d="M9.41952 12.4032H7.46159V10.4453C7.46159 10.1217 7.19925 9.85938 6.87565 9.85938C6.55206 9.85938 6.28972 10.1217 6.28972 10.4453V12.4032H4.33179C4.00819 12.4032 3.74585 12.6656 3.74585 12.9892C3.74585 13.3128 4.00819 13.5751 4.33179 13.5751H6.28972V15.533C6.28972 15.8566 6.55206 16.119 6.87565 16.119C7.19925 16.119 7.46159 15.8566 7.46159 15.533V13.5751H9.41952C9.74312 13.5751 10.0055 13.3128 10.0055 12.9892C10.0055 12.6656 9.74312 12.4032 9.41952 12.4032Z" fill="#1849A9"/>
<path d="M7.46159 12.4032H6.26159V13.6032H7.46159V12.4032ZM6.28972 12.4032V13.6032H7.48972V12.4032H6.28972ZM6.28972 13.5751H7.48972V12.3751H6.28972V13.5751ZM7.46159 13.5751V12.3751H6.26159V13.5751H7.46159ZM9.41952 11.2032H7.46159V13.6032H9.41952V11.2032ZM8.66159 12.4032V10.4453H6.26159V12.4032H8.66159ZM8.66159 10.4453C8.66159 9.45898 7.86199 8.65937 6.87565 8.65937V11.0594C6.5365 11.0594 6.26159 10.7845 6.26159 10.4453H8.66159ZM6.87565 8.65937C5.88932 8.65937 5.08972 9.45898 5.08972 10.4453H7.48972C7.48972 10.7845 7.2148 11.0594 6.87565 11.0594V8.65937ZM5.08972 10.4453V12.4032H7.48972V10.4453H5.08972ZM6.28972 11.2032H4.33179V13.6032H6.28972V11.2032ZM4.33179 11.2032C3.34545 11.2032 2.54585 12.0028 2.54585 12.9892H4.94585C4.94585 13.3283 4.67094 13.6032 4.33179 13.6032V11.2032ZM2.54585 12.9892C2.54585 13.9755 3.34545 14.7751 4.33179 14.7751V12.3751C4.67094 12.3751 4.94585 12.65 4.94585 12.9892H2.54585ZM4.33179 14.7751H6.28972V12.3751H4.33179V14.7751ZM5.08972 13.5751V15.533H7.48972V13.5751H5.08972ZM5.08972 15.533C5.08972 16.5194 5.88932 17.319 6.87565 17.319V14.919C7.2148 14.919 7.48972 15.1939 7.48972 15.533H5.08972ZM6.87565 17.319C7.86199 17.319 8.66159 16.5194 8.66159 15.533H6.26159C6.26159 15.1939 6.53651 14.919 6.87565 14.919V17.319ZM8.66159 15.533V13.5751H6.26159V15.533H8.66159ZM7.46159 14.7751H9.41952V12.3751H7.46159V14.7751ZM9.41952 14.7751C10.4059 14.7751 11.2055 13.9755 11.2055 12.9892H8.80546C8.80546 12.65 9.08037 12.3751 9.41952 12.3751V14.7751ZM11.2055 12.9892C11.2055 12.0028 10.4059 11.2032 9.41952 11.2032V13.6032C9.08037 13.6032 8.80546 13.3283 8.80546 12.9892H11.2055Z" fill="#1849A9" mask="url(#path-1-inside-1_353_2755)"/>
<path d="M19.2431 11.7848L19.041 11.5828C18.0648 10.6066 16.4786 10.5672 15.4569 11.5136C15.387 11.5783 15.5665 11.4003 13.7114 13.2555V7.62773C13.7114 6.74813 12.8831 5.97656 11.9388 5.97656H11.2114V4.64844H11.5977C12.2243 4.64844 12.7739 4.10969 12.7739 3.49551V1.22746C12.7739 0.648047 12.2709 0 11.5977 0H2.15326C1.48006 0 0.977051 0.648047 0.977051 1.22746V3.49551C0.977051 4.10969 1.52666 4.64844 2.15326 4.64844H2.46143V5.97656H1.85127C0.937207 5.97656 0.000488281 6.72984 0.000488281 7.62773V18.2805C0.000488281 19.1483 0.917246 20 1.85127 20H11.9388C12.1904 20 12.4457 19.9393 12.6827 19.8257C13.6259 20.1883 14.7096 19.9753 15.4423 19.2426L19.2431 15.4418C20.2513 14.4336 20.2513 12.7931 19.2431 11.7848ZM16.2127 12.4115C16.7582 11.8631 17.6582 11.8575 18.2123 12.4116L18.4142 12.6136C18.9445 13.1439 18.9671 13.9982 18.469 14.5553C18.4258 14.6032 18.5791 14.4485 16.9716 16.056L14.7699 13.8543L16.2127 12.4115ZM7.46143 3.47656V1.17188H8.90084V3.47656H7.46143ZM4.75592 3.47656V1.17188H6.28955V3.47656H4.75592ZM11.602 1.23953V3.46516C11.584 3.48289 11.6977 3.47656 10.0727 3.47656V1.17188H11.5553C11.5741 1.18906 11.5953 1.21914 11.602 1.23953ZM2.14893 3.46516V1.23953C2.15568 1.21918 2.17689 1.18906 2.19564 1.17188H3.58404V3.47656C2.06709 3.47656 2.16697 3.48285 2.14893 3.46516ZM3.6333 4.64844H10.0395V5.97656H3.6333V4.64844ZM1.17236 18.2805V7.62773C1.17236 7.45594 1.51455 7.14844 1.85127 7.14844H11.9388C12.2425 7.14844 12.5395 7.42289 12.5395 7.62773V14.4274L11.5833 15.3836C10.6431 16.3239 10.5801 17.8137 11.3935 18.8281H1.85127C1.53201 18.8281 1.17236 18.4709 1.17236 18.2805ZM14.6137 18.414C14.0606 18.9671 13.1658 18.9659 12.614 18.414L12.412 18.212C11.8594 17.6594 11.8593 16.7649 12.412 16.2123C13.7338 14.8904 12.5644 16.0598 13.9413 14.6829L16.143 16.8846L14.6137 18.414Z" fill="#1849A9"/>
</svg>
