<svg width="20" height="20" viewBox="0 0 20 20" fill="none" xmlns="http://www.w3.org/2000/svg">
<path d="M17.2025 2.50504H16.5561V1.85863C16.5561 1.52441 16.2842 1.25254 15.95 1.25254H5.90961V0.919219C5.90961 0.412383 5.49723 0 4.99035 0C4.48348 0 4.07113 0.412383 4.07113 0.919219V1.25254H2.79848C2.46426 1.25254 2.19238 1.52441 2.19238 1.85863V18.1414C2.19238 18.4756 2.46426 18.7475 2.79848 18.7475H3.44488V19.3939C3.44488 19.7281 3.71676 20 4.05098 20H17.2025C17.5367 20 17.8086 19.7281 17.8086 19.3939V3.11117C17.8086 2.77695 17.5367 2.50504 17.2025 2.50504ZM4.65707 0.919219C4.65707 0.73543 4.8066 0.585938 4.99039 0.585938C5.17418 0.585938 5.32367 0.73543 5.32367 0.919219V1.25254H4.65707V0.919219ZM17.2226 19.3939C17.2226 19.405 17.2136 19.4141 17.2025 19.4141H4.05098C4.03984 19.4141 4.03082 19.405 4.03082 19.3939V18.7475H15.9499C16.2841 18.7475 16.556 18.4756 16.556 18.1414V4.67668C16.556 4.51484 16.4248 4.38371 16.263 4.38371C16.1013 4.38371 15.9701 4.51484 15.9701 4.67668V18.1414C15.9701 18.1525 15.9611 18.1616 15.9499 18.1616H2.79848C2.78734 18.1616 2.77832 18.1525 2.77832 18.1414V1.85863C2.77832 1.8475 2.78734 1.83848 2.79848 1.83848H4.07117V2.79805C4.07117 3.30488 4.48355 3.71723 4.99043 3.71723C5.4973 3.71723 5.90965 3.30488 5.90965 2.79805C5.90965 2.63621 5.77848 2.50508 5.61668 2.50508C5.45488 2.50508 5.32371 2.63621 5.32371 2.79805C5.32371 2.9818 5.17418 3.13129 4.99039 3.13129C4.8066 3.13129 4.65711 2.9818 4.65711 2.79805V1.83844H15.95C15.9611 1.83844 15.9701 1.84746 15.9701 1.85859V3.42426C15.9701 3.58605 16.1013 3.71723 16.2631 3.71723C16.4249 3.71723 16.5561 3.58605 16.5561 3.42426V3.09098H17.2025C17.2136 3.09098 17.2226 3.1 17.2226 3.11117V19.3939Z" fill="#1849A9"/>
<path d="M8.45447 8.74777C8.45447 9.08199 8.72635 9.35387 9.06057 9.35387H9.68682C10.021 9.35387 10.2929 9.08199 10.2929 8.74777V7.47508H11.5656C11.8998 7.47508 12.1717 7.2032 12.1717 6.86898V6.24273C12.1717 5.90852 11.8998 5.6366 11.5656 5.6366H10.2929V4.36395C10.2929 4.02973 10.021 3.75781 9.68682 3.75781H9.06057C8.72635 3.75781 8.45447 4.02973 8.45447 4.36395V5.6366H7.18178C6.84756 5.6366 6.57568 5.90852 6.57568 6.24273V6.86898C6.57568 7.2032 6.84756 7.47508 7.18178 7.47508H8.45447V8.74777ZM7.18178 6.8891C7.17064 6.8891 7.16162 6.88008 7.16162 6.86895V6.2427C7.16162 6.23156 7.17064 6.2225 7.18178 6.2225H8.74744C8.90924 6.2225 9.04041 6.09137 9.04041 5.92953V4.36391C9.04041 4.35277 9.04943 4.34371 9.06057 4.34371H9.68682C9.69795 4.34371 9.70697 4.35273 9.70697 4.36391V5.92953C9.70697 6.09137 9.83814 6.2225 9.99994 6.2225H11.5656C11.5767 6.2225 11.5858 6.23152 11.5858 6.2427V6.86895C11.5858 6.88004 11.5767 6.8891 11.5656 6.8891H9.99994C9.83814 6.8891 9.70697 7.02027 9.70697 7.18207V8.74773C9.70697 8.75887 9.69795 8.76789 9.68682 8.76789H9.06057C9.04943 8.76789 9.04041 8.75887 9.04041 8.74773V7.18207C9.04041 7.02027 8.90924 6.8891 8.74744 6.8891H7.18178Z" fill="#1849A9"/>
<path d="M13.7575 11.2734H7.49487C7.33308 11.2734 7.2019 11.4046 7.2019 11.5664C7.2019 11.7282 7.33308 11.8594 7.49487 11.8594H13.7575C13.9192 11.8594 14.0504 11.7282 14.0504 11.5664C14.0504 11.4046 13.9192 11.2734 13.7575 11.2734Z" fill="#1849A9"/>
<path d="M5.92965 11.2734H4.99023C4.82844 11.2734 4.69727 11.4046 4.69727 11.5664C4.69727 11.7282 4.82844 11.8594 4.99023 11.8594H5.92965C6.09145 11.8594 6.22262 11.7282 6.22262 11.5664C6.22262 11.4046 6.09145 11.2734 5.92965 11.2734Z" fill="#1849A9"/>
<path d="M13.7575 13.1523H7.49487C7.33308 13.1523 7.2019 13.2835 7.2019 13.4453C7.2019 13.6071 7.33308 13.7383 7.49487 13.7383H13.7575C13.9192 13.7383 14.0504 13.6071 14.0504 13.4453C14.0504 13.2835 13.9192 13.1523 13.7575 13.1523Z" fill="#1849A9"/>
<path d="M13.7575 15.0312H7.49487C7.33308 15.0312 7.2019 15.1624 7.2019 15.3242C7.2019 15.486 7.33308 15.6172 7.49487 15.6172H13.7575C13.9192 15.6172 14.0504 15.486 14.0504 15.3242C14.0504 15.1624 13.9192 15.0312 13.7575 15.0312Z" fill="#1849A9"/>
<path d="M5.92965 13.1523H4.99023C4.82844 13.1523 4.69727 13.2835 4.69727 13.4453C4.69727 13.6071 4.82844 13.7383 4.99023 13.7383H5.92965C6.09145 13.7383 6.22262 13.6071 6.22262 13.4453C6.22262 13.2835 6.09145 13.1523 5.92965 13.1523Z" fill="#1849A9"/>
<path d="M5.92965 15.0312H4.99023C4.82844 15.0312 4.69727 15.1624 4.69727 15.3242C4.69727 15.486 4.82844 15.6172 4.99023 15.6172H5.92965C6.09145 15.6172 6.22262 15.486 6.22262 15.3242C6.22262 15.1624 6.09145 15.0312 5.92965 15.0312Z" fill="#1849A9"/>
</svg>
