<svg width="573" height="829" viewBox="0 0 573 829" fill="none" xmlns="http://www.w3.org/2000/svg">
<rect width="573" height="829" rx="20" fill="#2563EB"/>
<mask id="mask0_165_7827" style="mask-type:alpha" maskUnits="userSpaceOnUse" x="0" y="0" width="573" height="829">
<rect width="573" height="829" rx="15" fill="#0F172A"/>
</mask>
<g mask="url(#mask0_165_7827)">
<path opacity="0.1" d="M100.491 4.46351C39.0866 97.7298 -78.3555 129.985 -161.601 77.6998C-244.847 25.4144 -263.528 -92.3373 -202.123 -185.604C-140.719 -278.87 -23.2764 -311.125 59.9695 -258.84C143.215 -206.554 161.896 -88.8028 100.491 4.46351Z" stroke="white" stroke-width="7"/>
<path d="M860.003 905.416C860.003 954.931 831.903 1000.09 785.808 1033C739.718 1065.92 675.868 1086.38 605.178 1086.38C534.489 1086.38 470.638 1065.92 424.549 1033C378.453 1000.09 350.354 954.931 350.354 905.416C350.354 855.901 378.453 810.743 424.549 777.827C470.638 744.915 534.489 724.449 605.178 724.449C675.868 724.449 739.718 744.915 785.808 777.827C831.903 810.743 860.003 855.901 860.003 905.416Z" stroke="white" stroke-width="7"/>
</g>
</svg>
