<svg width="610" height="587" viewBox="0 0 610 587" fill="none" xmlns="http://www.w3.org/2000/svg">
<g clip-path="url(#clip0_165_7853)">
<rect width="610" height="587" rx="20" fill="#2563EB"/>
<path d="M866.65 622.466C866.65 672.592 838.201 718.16 791.826 751.276C745.454 784.389 681.291 804.933 610.325 804.933C539.359 804.933 475.195 784.389 428.824 751.276C382.449 718.16 354 672.592 354 622.466C354 572.341 382.449 526.773 428.824 493.657C475.195 460.543 539.359 440 610.325 440C681.291 440 745.454 460.543 791.826 493.657C838.201 526.773 866.65 572.341 866.65 622.466Z" stroke="white" stroke-width="4"/>
<path opacity="0.1" d="M105.288 -2.87829C43.8835 90.388 -73.5586 122.643 -156.805 70.358C-240.05 18.0726 -258.731 -99.6791 -197.326 -192.945C-135.922 -286.212 -18.4796 -318.467 64.7664 -266.182C148.012 -213.896 166.693 -96.1445 105.288 -2.87829Z" stroke="white" stroke-width="7"/>
</g>
<defs>
<clipPath id="clip0_165_7853">
<rect width="610" height="587" fill="white"/>
</clipPath>
</defs>
</svg>
