<svg width="160" height="159" viewBox="0 0 160 159" fill="none" xmlns="http://www.w3.org/2000/svg">
<path d="M79.7237 0.0517578C123.571 0.0517578 159.172 35.6525 159.172 79.5C159.172 123.348 123.571 158.948 79.7237 158.948C35.8762 158.948 0.275391 123.348 0.275391 79.5C0.275391 35.6525 35.8762 0.0517578 79.7237 0.0517578Z" fill="#EFF8FF"/>
<mask id="mask0_17_7782" style="mask-type:alpha" maskUnits="userSpaceOnUse" x="0" y="0" width="160" height="159">
<path d="M79.7237 0.0517578C123.571 0.0517578 159.172 35.6525 159.172 79.5C159.172 123.348 123.571 158.948 79.7237 158.948C35.8762 158.948 0.275391 123.348 0.275391 79.5C0.275391 35.6525 35.8762 0.0517578 79.7237 0.0517578Z" fill="#FEF9C6"/>
</mask>
<g mask="url(#mask0_17_7782)">
<path d="M74.4097 58.9854C71.2686 60.5734 68.0806 63.4916 66.8922 66.6354C65.4915 70.3383 63.9068 72.8319 60.7591 76.1952C60.7577 76.1965 60.7558 76.1952 60.7538 76.1959C60.6799 76.219 60.6028 76.2361 60.5243 76.2486C60.5071 76.2519 60.4906 76.2532 60.4728 76.2552C60.4023 76.2651 60.3304 76.2691 60.2572 76.2697C60.2526 76.2697 60.248 76.2664 60.2433 76.2664C60.2433 76.2664 60.24 76.2579 60.2387 76.2579H44.9961V108.817L56.721 108.619C56.7355 108.619 56.7501 108.62 56.7652 108.621C56.8022 108.621 56.8384 108.623 56.8754 108.626C56.8965 108.628 56.9169 108.631 56.9373 108.634C56.9703 108.638 57.0026 108.642 57.0356 108.648C57.0594 108.653 57.0831 108.658 57.1062 108.664C57.1345 108.67 57.1636 108.677 57.1919 108.685C57.2183 108.693 57.2447 108.702 57.2704 108.71C57.2948 108.719 57.3185 108.726 57.3429 108.736C57.3726 108.748 57.401 108.761 57.4293 108.774C57.4498 108.783 57.4696 108.791 57.4893 108.801C57.521 108.818 57.552 108.836 57.5823 108.853C57.5955 108.861 57.6094 108.868 57.6226 108.876C66.5388 114.46 87.0328 114.245 91.3531 112.337C91.6439 112.209 91.9532 112.17 92.2494 112.206C92.3865 112.19 92.527 112.187 92.6708 112.206C96.7246 112.717 98.3232 112.028 100.517 110.316C102.043 109.123 103.697 107.046 103.865 104.924C103.867 104.899 103.871 104.874 103.875 104.849C103.866 104.783 103.86 104.716 103.86 104.648C103.86 103.791 103.771 101.505 104.654 101.473C105.558 101.202 106.202 100.49 106.848 99.2501C107.433 98.1276 107.965 93.5 106.377 91.8177" fill="#DCA97A"/>
<path d="M107.754 78.6578C107.045 78.1045 106.937 77.1047 107.513 76.4235C107.55 76.3799 107.589 76.3384 107.629 76.2995C107.709 76.0476 107.854 75.8121 108.066 75.6169C109.044 74.7161 109.608 72.7851 108.793 70.839C107.322 67.3279 102.159 65.3138 94.6275 65.3138C94.5424 65.3138 94.4586 65.3059 94.3769 65.294C92.7803 65.2017 90.8354 64.7948 89.1327 64.1868C87.3059 63.5345 85.7858 62.3554 84.9779 60.4435C84.5908 59.5295 85.5075 57.6994 87.6337 55.6834C90.6739 52.5311 92.4538 48.9837 92.1129 45.683C91.8181 42.8334 91.3676 40.148 89.7255 38.2836C88.0716 36.4054 86.1683 35.3245 83.8608 35.7367C83.529 42.4106 78.9872 53.0046 72.4135 55.9828C69.2677 57.5708 66.0732 60.489 64.8822 63.6328C63.4794 67.3358 61.8921 69.8286 58.7391 73.192C58.7378 73.1933 58.7351 73.1927 58.7331 73.1933C58.6593 73.2164 58.5821 73.2329 58.5036 73.2461C58.4865 73.2487 58.4694 73.2507 58.4522 73.2533C58.381 73.2626 58.3091 73.2665 58.2359 73.2672C58.2313 73.2672 58.2267 73.2645 58.222 73.2645C58.2207 73.2645 58.2187 73.256 58.2168 73.256H44.9434V105.815H57.0798C57.095 105.815 57.1095 105.817 57.1247 105.817C57.1609 105.818 57.1979 105.819 57.2348 105.823C57.2559 105.825 57.2763 105.827 57.2968 105.83C57.3298 105.834 57.3627 105.838 57.3951 105.845C57.4195 105.849 57.4425 105.855 57.4663 105.86C57.4946 105.867 57.523 105.873 57.5514 105.881C57.5784 105.889 57.6041 105.898 57.6305 105.907C57.6549 105.916 57.6786 105.923 57.703 105.932C57.7327 105.944 57.7611 105.957 57.7901 105.97C57.8099 105.98 57.8297 105.988 57.8494 105.998C57.8811 106.014 57.9121 106.032 57.9431 106.05C57.9563 106.058 57.9701 106.065 57.9827 106.072C66.9153 111.656 85.0584 111.244 89.3859 109.335C89.6774 109.206 89.9874 109.168 90.2841 109.204C90.4213 109.187 90.5624 109.186 90.7062 109.204C94.7673 109.715 98.3568 109.026 100.554 107.314C102.084 106.121 102.945 104.441 103.113 102.319C103.115 102.294 103.12 102.269 103.123 102.244C103.114 102.178 103.108 102.111 103.108 102.043C103.108 101.186 103.815 100.489 104.699 100.456C105.13 100.301 106.45 99.0035 107.102 96.7804C107.458 95.5663 107.817 93.2779 106.226 91.5955C105.612 90.9453 105.663 89.9402 106.34 89.3513C106.393 89.3051 106.449 89.2643 106.507 89.226C106.594 89.1047 106.7 88.9932 106.826 88.8956C108.43 87.6512 109.51 85.2361 109.513 82.8864C109.514 81.82 109.288 79.8528 107.754 78.6578Z" fill="#F0C08C"/>
<path d="M44.6841 111.93H-30.555C-34.9075 111.93 -38.4688 108.369 -38.4688 104.017V77.7546C-38.4688 73.402 -34.9075 69.8408 -30.555 69.8408H44.6841C49.0367 69.8408 52.5979 73.402 52.5979 77.7546V104.017C52.5979 108.369 49.0367 111.93 44.6841 111.93Z" fill="#1570EF"/>
<path d="M46.3015 111.93H-32.1743C-35.6366 111.93 -38.4697 109.097 -38.4697 105.634V105.503H52.4657C52.5382 105.503 52.5969 105.562 52.5969 105.634C52.5969 109.097 49.7638 111.93 46.3015 111.93Z" fill="#1570EF"/>
</g>
<g opacity="0.257158">
<path d="M109.673 113.316C108.531 113.316 107.605 114.242 107.605 115.384C107.605 116.526 108.531 117.452 109.673 117.452C110.815 117.452 111.741 116.526 111.741 115.384C111.741 114.242 110.815 113.316 109.673 113.316Z" fill="#75C379"/>
</g>
<g opacity="0.155844">
<path d="M76.436 126.107C71.5088 126.107 67.5146 130.102 67.5146 135.029C67.5146 139.956 71.5088 143.95 76.436 143.95C81.3632 143.95 85.3573 139.956 85.3573 135.029C85.3573 130.102 81.3632 126.107 76.436 126.107Z" fill="#75C379"/>
</g>
<g opacity="0.56001">
<path d="M142.912 81.3311C137.984 81.3311 133.99 85.3252 133.99 90.2524C133.99 95.1796 137.984 99.1738 142.912 99.1738C147.839 99.1738 151.833 95.1796 151.833 90.2524C151.833 85.3252 147.839 81.3311 142.912 81.3311Z" stroke="#75C379" stroke-width="3.13044"/>
</g>
<g opacity="0.450045">
<path d="M56.0922 38.3789C51.165 38.3789 47.1709 42.3731 47.1709 47.3003C47.1709 52.2275 51.165 56.2216 56.0922 56.2216C61.0195 56.2216 65.0136 52.2275 65.0136 47.3003C65.0136 42.3731 61.0195 38.3789 56.0922 38.3789Z" stroke="#75C379" stroke-width="1.56522"/>
</g>
<rect x="106.879" y="5.01758" width="46.5517" height="46.5517" rx="23.2759" fill="#D1FADF"/>
<path fill-rule="evenodd" clip-rule="evenodd" d="M140.04 19.3516L126.152 32.7547L122.466 28.8172C121.787 28.1771 120.721 28.1383 119.945 28.6814C119.188 29.2439 118.975 30.2331 119.44 31.0284L123.805 38.1275C124.231 38.787 124.969 39.1943 125.803 39.1943C126.598 39.1943 127.354 38.787 127.781 38.1275C128.479 37.2159 141.805 21.3301 141.805 21.3301C143.55 19.5456 141.436 17.9745 140.04 19.3323V19.3516Z" fill="#12B76A"/>
</svg>
